Coordinates
version=1
nRows=60
nColumns=12
inDegrees=yes

Units are S.I. units (second, meters, Newtons, ...)
Angles are in degrees

endheader
time	SC_y	SC_z	SC_x	AC_y	AC_z	AC_x	GH_y	GH_z	GH_yy	EL_x	PS_y
       0.0              -31.76          25.76           17.2          48.91         -17.58          5.382         -84.29          68.48          147.9          41.47          53.26
   0.04951              -31.76          25.76           17.2          48.91         -17.58          5.378         -84.29          68.47          147.9          41.47          53.26
   0.09903              -31.77          25.77          17.21          48.91         -17.58          5.375         -84.29          68.46          147.8          41.48          53.25
    0.1485              -31.77          25.77          17.21          48.92         -17.58          5.371         -84.29          68.45          147.8          41.48          53.25
    0.1981              -31.77          25.77          17.22          48.92         -17.58          5.367          -84.3          68.43          147.7          41.49          53.25
    0.2476              -31.77          25.77          17.22          48.92         -17.58          5.362          -84.3          68.42          147.7          41.49          53.24
    0.2971              -31.77          25.77          17.23          48.93         -17.58          5.358          -84.3          68.41          147.6           41.5          53.24
    0.3466              -31.77          25.77          17.24          48.93         -17.58          5.353         -84.31          68.39          147.6          41.51          53.24
    0.3961              -31.77          25.77          17.24          48.94         -17.58          5.348         -84.31          68.37          147.5          41.51          53.23
    0.4456              -31.78          25.77          17.25          48.94         -17.58          5.342         -84.31          68.35          147.4          41.52          53.23
    0.4951              -31.78          25.77          17.26          48.95         -17.59          5.336         -84.32          68.34          147.4          41.53          53.23
    0.5447              -31.78          25.77          17.27          48.95         -17.59           5.33         -84.32          68.31          147.3          41.54          53.22
    0.5942              -31.78          25.77          17.28          48.96         -17.59          5.323         -84.33          68.29          147.2          41.55          53.22
    0.6437              -31.79          25.77          17.29          48.97         -17.59          5.315         -84.33          68.27          147.1          41.56          53.21
    0.6932              -31.79          25.78           17.3          48.97         -17.59          5.307         -84.34          68.24          147.0          41.57           53.2
    0.7427              -31.79          25.78          17.31          48.98         -17.59          5.298         -84.34          68.21          146.9          41.59           53.2
    0.7922               -31.8          25.78          17.32          48.99         -17.59          5.288         -84.35          68.18          146.8           41.6          53.19
    0.8417               -31.8          25.78          17.34           49.0         -17.59          5.278         -84.35          68.15          146.7          41.61          53.18
    0.8913               -31.8          25.78          17.35          49.01         -17.59          5.266         -84.36          68.11          146.5          41.63          53.17
    0.9408              -31.81          25.78          17.37          49.02         -17.59          5.254         -84.37          68.07          146.4          41.65          53.17
    0.9903              -31.81          25.79          17.39          49.03         -17.59           5.24         -84.38          68.02          146.2          41.67          53.16
      1.04              -31.82          25.79          17.41          49.04          -17.6          5.224         -84.39          67.97          146.0          41.69          53.14
     1.089              -31.82          25.79          17.43          49.06          -17.6          5.208          -84.4          67.92          145.8          41.71          53.13
     1.139              -31.83          25.79          17.45          49.07          -17.6          5.189         -84.41          67.86          145.6          41.74          53.12
     1.188              -31.84           25.8          17.48          49.09          -17.6          5.168         -84.42          67.79          145.4          41.77           53.1
     1.238              -31.84           25.8          17.51          49.11          -17.6          5.145         -84.44          67.72          145.1           41.8          53.09
     1.287              -31.85           25.8          17.55          49.13         -17.61          5.119         -84.45          67.63          144.8          41.84          53.07
     1.337              -31.86          25.81          17.58          49.16         -17.61           5.09         -84.47          67.54          144.4          41.88          53.05
     1.386              -31.88          25.81          17.63          49.19         -17.61          5.057         -84.49          67.43          144.0          41.93          53.02
     1.436              -31.89          25.82          17.68          49.22         -17.62           5.02         -84.52          67.31          143.6          41.98           53.0
     1.485               -31.9          25.83          17.73          49.25         -17.62          4.977         -84.54          67.18          143.0          42.04          52.96
     1.535              -31.92          25.83           17.8           49.3         -17.62          4.928         -84.57          67.02          142.5          42.11          52.93
     1.584              -31.94          25.84          17.87          49.34         -17.63          4.872         -84.61          66.83          141.8          42.19          52.89
     1.634              -31.96          25.85          17.96           49.4         -17.64          4.806         -84.65          66.62          141.0          42.29          52.84
     1.683              -31.99          25.86          18.06          49.47         -17.64          4.729          -84.7          66.37          140.1           42.4          52.78
     1.733              -32.02          25.88          18.18          49.54         -17.65          4.639         -84.76          66.08          139.0          42.53          52.72
     1.783              -32.06          25.89          18.33          49.64         -17.66          4.531         -84.83          65.73          137.7          42.68          52.64
     1.832               -32.1          25.91           18.5          49.75         -17.68          4.402         -84.91          65.32          136.1          42.86          52.55
     1.882              -32.16          25.94           18.7          49.88         -17.69          4.246         -85.01          64.81          134.2          43.09          52.43
     1.931              -32.22          25.97          18.96          50.04         -17.71          4.055         -85.13           64.2          131.9          43.36          52.29
     1.981               -32.3           26.0          19.27          50.25         -17.73           3.82         -85.28          63.44          129.1          43.69          52.12
      2.03              -32.41          26.05          19.66           50.5         -17.76          3.526         -85.46          62.49          125.5          44.11          51.91
      2.08              -32.54          26.11          20.15          50.81          -17.8          3.156         -85.69          61.29          121.1          44.64          51.64
     2.129               -32.7          26.18          20.77          51.22         -17.84          2.686         -85.99          59.77          115.4          45.31           51.3
     2.179              -32.91          26.27          21.57          51.73          -17.9          2.085         -86.37          57.83          108.2          46.17          50.86
     2.228              -33.17          26.39          22.59          52.39         -17.97          1.313         -86.86          55.33          98.85          47.27           50.3
     2.278              -33.52          26.54           23.9          53.24         -18.07         0.3266         -87.48          52.15          86.96          48.67          49.58
     2.327              -33.95          26.73          25.54           54.3         -18.19        -0.9133         -88.27          48.14           72.0          50.44          48.68
     2.377              -34.47          26.96          27.54          55.59         -18.33         -2.424         -89.22          43.26          53.78           52.6          47.58
     2.426              -35.08          27.23          29.86          57.09          -18.5         -4.176         -90.33           37.6          32.66          55.09          46.31
     2.476              -35.74          27.52          32.38          58.71         -18.69         -6.072         -91.53          31.47          9.784           57.8          44.93
     2.525               -36.4          27.82          34.89          60.34         -18.87         -7.969         -92.73          25.34         -13.09           60.5          43.55
     2.575               -37.0          28.09          37.21          61.84         -19.04         -9.721         -93.83          19.68         -34.21           63.0          42.28
     2.624              -37.53          28.32          39.21          63.13         -19.19         -11.23         -94.79           14.8         -52.44          65.15          41.18
     2.674              -37.96          28.51          40.85          64.19         -19.31         -12.47         -95.57          10.79         -67.39          66.92          40.28
     2.723               -38.3          28.66          42.16          65.04          -19.4         -13.46          -96.2          7.606         -79.29          68.33          39.56
     2.773              -38.57          28.78          43.18           65.7         -19.47         -14.23         -96.69          5.111          -88.6          69.43           39.0
     2.822              -38.78          28.87          43.98          66.21         -19.53         -14.83         -97.07          3.167         -95.85          70.29          38.56
     2.872              -38.94          28.94           44.6          66.61         -19.58          -15.3         -97.36          1.648         -101.5          70.96          38.22
     2.921              -39.07           29.0          45.09          66.93         -19.61         -15.67          -97.6         0.4535         -106.0          71.48          37.95
